<?xml version="1.0" standalone="no"?>
<!DOCTYPE svg PUBLIC "-//W3C//DTD SVG 20010904//EN"
 "http://www.w3.org/TR/2001/REC-SVG-20010904/DTD/svg10.dtd">
<svg version="1.0" xmlns="http://www.w3.org/2000/svg"
 width="512.000000pt" height="512.000000pt" viewBox="0 0 512.000000 512.000000"
 preserveAspectRatio="xMidYMid meet">

<g transform="translate(0.000000,512.000000) scale(0.100000,-0.100000)"
fill="#000000" stroke="none">
<path d="M1325 3977 c-100 -34 -179 -93 -227 -171 -22 -35 -43 -57 -63 -65
-48 -17 -98 -65 -130 -122 -26 -47 -30 -64 -30 -129 1 -114 49 -195 150 -248
l50 -27 333 -3 c376 -3 406 1 480 63 91 79 124 194 87 306 -21 61 -92 139
-146 159 -24 9 -43 27 -64 62 -67 111 -185 180 -320 185 -48 2 -96 -2 -120
-10z"/>
<path d="M3805 3657 c-100 -34 -179 -93 -227 -171 -22 -35 -43 -57 -63 -65
-48 -17 -98 -65 -130 -122 -26 -47 -30 -64 -30 -129 1 -114 49 -195 150 -248
l50 -27 333 -3 c376 -3 406 1 480 63 91 79 124 194 87 306 -21 61 -92 139
-146 159 -24 9 -43 27 -64 62 -67 111 -185 180 -320 185 -48 2 -96 -2 -120
-10z"/>
<path d="M2331 2809 c-30 -28 -86 -72 -125 -99 -39 -26 -149 -126 -244 -222
l-172 -173 167 -167 168 -167 110 -4 c121 -5 166 -20 217 -74 15 -15 72 -120
128 -232 132 -266 151 -295 283 -428 l112 -113 907 0 c500 0 908 3 908 8 -1
18 -240 280 -282 308 -26 18 -71 37 -100 44 -29 7 -89 29 -133 50 -95 46 -134
83 -340 330 -81 96 -152 174 -158 173 -7 -1 -63 -22 -126 -48 -62 -25 -165
-60 -230 -77 -64 -16 -117 -31 -119 -33 -1 -1 123 -116 277 -255 154 -138 282
-258 285 -267 11 -29 6 -61 -15 -87 -16 -20 -29 -26 -60 -26 -38 0 -54 13
-342 273 -178 161 -311 289 -323 311 -33 58 -36 101 -14 206 11 52 18 95 17
96 -1 1 -49 30 -107 64 -194 115 -245 166 -494 493 -71 92 -131 167 -135 167
-3 -1 -30 -23 -60 -51z"/>
<path d="M1495 2238 c-74 -89 -220 -220 -368 -332 -81 -61 -208 -181 -457
-430 l-345 -346 1204 0 1203 0 -54 58 c-79 85 -113 142 -237 389 -88 177 -115
224 -133 227 -13 3 -68 7 -123 9 -71 2 -110 8 -135 21 -19 10 -139 121 -265
247 l-230 229 -60 -72z"/>
</g>
</svg>
